<svg xmlns="http://www.w3.org/2000/svg" viewBox="0 0 160.59 69.66"><defs><style>.cls-1{fill:#fff;stroke:#1d1d1b;stroke-miterlimit:10;}</style></defs><title>Fichier 1</title><g id="Calque_2" data-name="Calque 2"><g id="Calque_1-2" data-name="Calque 1"><g id="_Groupe_" data-name="&lt;Groupe&gt;"><path id="_Tracé_transparent_" data-name="&lt;Tracé transparent&gt;" class="cls-1" d="M36.2,34.4H49V21.57h8.7V34.4H70.56v8.7H57.69V55.86H49V43.1H36.2Z"/><path id="_Tracé_transparent_2" data-name="&lt;Tracé transparent&gt;" class="cls-1" d="M106.85,9.84v9.23H89v9.8a10.79,10.79,0,0,1,8.63-4q6,0,9,3.33t3,12.82V49.3a49.36,49.36,0,0,1-.59,9,12.58,12.58,0,0,1-2.51,5.31,12.07,12.07,0,0,1-5.36,3.74,23.83,23.83,0,0,1-8.39,1.3A23.32,23.32,0,0,1,83,66.72a11.72,11.72,0,0,1-6-5.79Q75.19,57.07,75.19,49V45.88H89.6v3.6A55.16,55.16,0,0,0,90,57.43a2.5,2.5,0,0,0,2.71,2.35,2.4,2.4,0,0,0,2.44-2.14q.05-.78.12-6.81V39.39A9.83,9.83,0,0,0,94.59,35a2.39,2.39,0,0,0-2.25-1.18,2.42,2.42,0,0,0-1.68.61,2.78,2.78,0,0,0-.87,1.3,15.71,15.71,0,0,0-.2,3.23H75.34l.61-29.09Z"/></g><polygon id="_Tracé_" data-name="&lt;Tracé&gt;" class="cls-1" points="120.82 1.58 120.82 18.58 143.49 38.72 120.82 55.86 120.82 68.66 159.82 39.25 120.82 1.58"/><polygon id="_Tracé_2" data-name="&lt;Tracé&gt;" class="cls-1" points="39.77 1.18 39.77 18.18 17.1 38.31 39.77 55.46 39.77 68.25 0.77 38.84 39.77 1.18"/></g></g></svg>