<svg xmlns="http://www.w3.org/2000/svg" viewBox="0 0 335.1 313.69"><defs><style>.cls-1{fill:#fff;}</style></defs><title>Fichier 1</title><g id="Calque_2" data-name="Calque 2"><g id="Calque_1-2" data-name="Calque 1"><path class="cls-1" d="M150.91,176.55a85.16,85.16,0,0,0,18.21-15.3l19.15,11.06,17.44-30.21-19.12-11a83.92,83.92,0,0,0,4.13-23.45l21.75-3.83-6.06-34.35-21.74,3.84a84.52,84.52,0,0,0-11.93-20.6L187,35.73,160.24,13.31,146,30.23a83.93,83.93,0,0,0-22.36-8.16V0H88.8V22.07a84,84,0,0,0-22.37,8.16L52.23,13.31,25.51,35.73,39.72,52.66A84.78,84.78,0,0,0,27.8,73.26L6.05,69.43,0,103.78l21.74,3.83a84.23,84.23,0,0,0,4.13,23.45l-19.12,11L24.19,172.3l19.16-11.06a85.16,85.16,0,0,0,18.21,15.3L54,197.32l32.78,11.93,7.55-20.74a84.78,84.78,0,0,0,23.81,0l7.55,20.74,32.78-11.93Zm-44.67-27.2a44.54,44.54,0,1,1,44.54-44.54,44.59,44.59,0,0,1-44.54,44.54Zm0,0"/><path class="cls-1" d="M300.83,202.74l-15,4.86a60.39,60.39,0,0,0-10.49-13.42l8.4-13.41-21.16-13.25-8.4,13.4a60,60,0,0,0-16.66-3.57l-2.18-15.65-24.73,3.45,2.18,15.65a60,60,0,0,0-15.05,8L186,178.18l-16.73,18.54L181,207.32a60.54,60.54,0,0,0-6.42,15.78l-15.79-.57-.91,24.95,15.8.58a60.2,60.2,0,0,0,5.25,16.21L166.46,274l15.35,19.69,12.49-9.73a61.1,61.1,0,0,0,14.42,9l-3.31,15.48,24.42,5.21,3.31-15.45A60.48,60.48,0,0,0,250,295.88l7.41,14,22.06-11.7-7.41-14a61,61,0,0,0,11.4-12.65l14.67,5.95,9.38-23.14-14.64-5.94a60.23,60.23,0,0,0,.61-17l15-4.87ZM237.7,269.3a31.89,31.89,0,1,1,27.18-36,31.92,31.92,0,0,1-27.18,36Zm0,0"/><path class="cls-1" d="M334.52,116.21l.58-19.7-12.47-.37a47.7,47.7,0,0,0-4.23-12.78l9.79-7.73L316,60.16l-9.79,7.73a47.8,47.8,0,0,0-11.46-7.05l2.54-12.23-19.3-4-2.54,12.23a47.19,47.19,0,0,0-13.31,1.93l-5.91-11-17.36,9.35,5.91,11a47.46,47.46,0,0,0-8.94,10.05l-11.6-4.61-7.29,18.31,11.6,4.63a47.73,47.73,0,0,0-.41,13.44l-11.85,3.92,6.19,18.72,11.85-3.92a47.57,47.57,0,0,0,8.34,10.56l-6.56,10.62,16.77,10.36,6.57-10.63a48.14,48.14,0,0,0,13.16,2.73l1.8,12.36,19.51-2.85-1.8-12.35a47.25,47.25,0,0,0,6.15-2.77,48,48,0,0,0,5.7-3.6l9.32,8.3,13.11-14.72-9.33-8.31a48.24,48.24,0,0,0,5-12.49Zm-47,10.56a25.17,25.17,0,1,1,10.23-34.1,25.2,25.2,0,0,1-10.23,34.1Zm0,0"/></g></g></svg>