<svg xmlns="http://www.w3.org/2000/svg" viewBox="0 0 71.71 59.11"><defs><style>.cls-1{fill:#fff;}</style></defs><title>Fichier 1</title><g id="Calque_2" data-name="Calque 2"><g id="Layer_1" data-name="Layer 1"><path class="cls-1" d="M65,19.46a4.06,4.06,0,1,0,4.06,4.06A4.06,4.06,0,0,0,65,19.46Zm-58.36,0a4.06,4.06,0,1,0,4.06,4.06A4.07,4.07,0,0,0,6.68,19.46ZM53,12.07a6,6,0,1,0,6,6A6,6,0,0,0,53,12.07ZM71.71,48.81H64.82V36.14a11.82,11.82,0,0,0-1.67-6,6.62,6.62,0,0,1,1.88-.3,6.68,6.68,0,0,1,6.67,6.68Zm-53-36.74a6,6,0,1,0,6,6A6,6,0,0,0,18.75,12.07ZM6.68,29.88a6.56,6.56,0,0,1,1.87.3,11.7,11.7,0,0,0-1.67,6V48.81H0V36.56A6.69,6.69,0,0,1,6.68,29.88ZM35.85,0a8.93,8.93,0,1,0,8.94,8.93A8.94,8.94,0,0,0,35.85,0ZM62.61,53.53H52.06V34.25a15.94,15.94,0,0,0-1.83-7.33A9.54,9.54,0,0,1,53,26.49a9.67,9.67,0,0,1,9.66,9.66Zm-43-19.28V53.53H9.09V36.14a9.67,9.67,0,0,1,9.66-9.66,9.44,9.44,0,0,1,2.71.44A16,16,0,0,0,19.63,34.25Zm2.21,24.86h28V34.25a14,14,0,1,0-28,0Z"/></g></g></svg>