<svg xmlns="http://www.w3.org/2000/svg" viewBox="0 0 106.57 110"><defs><style>.cls-1{fill:#fff;}</style></defs><title>Fichier 1</title><g id="Calque_2" data-name="Calque 2"><g id="Layer_4" data-name="Layer 4"><path class="cls-1" d="M69.76,80.93C53,84.41,42.16,77.35,38.33,74.22L54.92,63.05,0,63.26l.41.67h0L28.85,110l.63-17.6c5.09,3.17,21.51,11.49,44.12,3.86,30.74-10.37,32.85-39.39,33-41.59h0v-.14S100.28,74.57,69.76,80.93Z"/><path class="cls-1" d="M36.81,29.07c16.73-3.48,27.6,3.58,31.43,6.71L51.65,46.95l54.92-.21-.41-.67h0L77.72,0,77.1,17.6C72,14.44,55.58,6.12,33,13.74,2.23,24.11.12,53.13,0,55.33H0c0,.09,0,.13,0,.13S6.29,35.43,36.81,29.07Z"/></g></g></svg>