<svg xmlns="http://www.w3.org/2000/svg" viewBox="0 0 135.88 135.88"><defs><style>.cls-1{fill:#fff;}</style></defs><title>Fichier 3</title><g id="Calque_2" data-name="Calque 2"><g id="Objects"><path class="cls-1" d="M67.94,12.24c18.14,0,20.29.07,27.45.4C102,12.94,105.62,14,108,15a21,21,0,0,1,7.81,5.08,21,21,0,0,1,5.08,7.81c.93,2.39,2,6,2.34,12.62.33,7.16.4,9.31.4,27.45s-.07,20.29-.4,27.45c-.3,6.62-1.41,10.22-2.34,12.62A22.5,22.5,0,0,1,108,120.9c-2.39.93-6,2-12.62,2.34-7.16.33-9.31.4-27.45.4s-20.29-.07-27.45-.4c-6.62-.3-10.22-1.41-12.62-2.34a21.05,21.05,0,0,1-7.81-5.08A21.06,21.06,0,0,1,15,108c-.93-2.39-2-6-2.34-12.62-.33-7.16-.4-9.31-.4-27.45s.07-20.29.4-27.45C12.94,33.86,14,30.27,15,27.87a21.05,21.05,0,0,1,5.08-7.81A21,21,0,0,1,27.87,15c2.39-.93,6-2,12.62-2.34,7.16-.33,9.31-.4,27.45-.4M67.94,0c-18.45,0-20.77.08-28,.41A49.88,49.88,0,0,0,23.44,3.57a33.3,33.3,0,0,0-12,7.84,33.3,33.3,0,0,0-7.84,12A49.86,49.86,0,0,0,.41,39.93C.08,47.18,0,49.49,0,67.94S.08,88.71.41,96a49.86,49.86,0,0,0,3.16,16.49,33.3,33.3,0,0,0,7.84,12,33.3,33.3,0,0,0,12,7.84,49.89,49.89,0,0,0,16.49,3.16c7.25.33,9.56.41,28,.41s20.77-.08,28-.41a49.89,49.89,0,0,0,16.49-3.16,34.74,34.74,0,0,0,19.87-19.87A49.86,49.86,0,0,0,135.47,96c.33-7.25.41-9.56.41-28s-.08-20.76-.41-28a49.86,49.86,0,0,0-3.16-16.49,33.3,33.3,0,0,0-7.84-12,33.29,33.29,0,0,0-12-7.84A49.88,49.88,0,0,0,96,.41C88.71.08,86.39,0,67.94,0"/><path class="cls-1" d="M67.94,33.05a34.89,34.89,0,1,0,34.89,34.89A34.89,34.89,0,0,0,67.94,33.05m0,57.54A22.65,22.65,0,1,1,90.59,67.94,22.65,22.65,0,0,1,67.94,90.59"/><path class="cls-1" d="M112.36,31.67a8.15,8.15,0,1,1-8.15-8.15,8.15,8.15,0,0,1,8.15,8.15"/></g></g></svg>