<svg xmlns="http://www.w3.org/2000/svg" viewBox="0 0 132.04 107.31"><defs><style>.cls-1{fill:#fff;}</style></defs><title>Fichier 2</title><g id="Calque_2" data-name="Calque 2"><g id="Objects"><path class="cls-1" d="M0,95.13a76.68,76.68,0,0,0,41.52,12.17c50.3,0,78.71-42.48,77-80.59A54.91,54.91,0,0,0,132,12.7,54.13,54.13,0,0,1,116.48,17,27.14,27.14,0,0,0,128.39,2a54.3,54.3,0,0,1-17.2,6.58A27.11,27.11,0,0,0,65,33.26,76.88,76.88,0,0,1,9.19,5a27.12,27.12,0,0,0,8.38,36.17A27,27,0,0,1,5.3,37.74,27.12,27.12,0,0,0,27,64.64a27.11,27.11,0,0,1-12.23.46,27.1,27.1,0,0,0,25.3,18.81A54.44,54.44,0,0,1,0,95.13Z"/></g></g></svg>