<?xml version="1.0" encoding="utf-8"?>
<!-- Generator: Adobe Illustrator 19.0.0, SVG Export Plug-In . SVG Version: 6.00 Build 0)  -->
<svg version="1.1" id="Calque_1" xmlns="http://www.w3.org/2000/svg" xmlns:xlink="http://www.w3.org/1999/xlink" x="0px" y="0px"
	 viewBox="-331 256.7 224 352" style="enable-background:new -331 256.7 224 352;" xml:space="preserve">
<style type="text/css">
	.st0{fill:#FFFFFF;}
	.st1{fill:#F2D500;}
</style>
<title>Fichier 2</title>
<g id="Calque_2">
	<g id="Objects">
		<path class="st0" d="M-245.3,499.3c4.9,3.2,10.7,4.9,16.6,4.9c20.1,0,31.4-17,30.8-32.2c2.1-1.5,3.9-3.4,5.4-5.6
			c-2,0.9-4.1,1.5-6.2,1.7c2.3-1.4,4-3.5,4.8-6c-2.1,1.3-4.4,2.1-6.9,2.6c-4.1-4.4-10.9-4.6-15.3-0.5c-2.8,2.6-4,6.6-3.1,10.4
			c-8.7-0.4-16.8-4.5-22.3-11.3c-2.9,4.9-1.4,11.3,3.3,14.4c-1.7-0.1-3.4-0.5-4.9-1.4c-0.1,5.2,3.6,9.7,8.7,10.7
			c-1.6,0.4-3.3,0.5-4.9,0.2c1.4,4.4,5.5,7.4,10.1,7.5C-233.9,498.4-239.6,500-245.3,499.3z"/>
	</g>
</g>
<title>Fichier 2</title>
<g id="Calque_2_1_">
	<g id="Objects_1_">
		<path class="st1" d="M-245.3,450.5c4.9,3.2,10.7,4.9,16.6,4.9c20.1,0,31.4-17,30.8-32.2c2.1-1.5,3.9-3.4,5.4-5.6
			c-2,0.9-4.1,1.5-6.2,1.7c2.3-1.4,4-3.5,4.8-6c-2.1,1.3-4.4,2.1-6.9,2.6c-4.1-4.4-10.9-4.6-15.3-0.5c-2.8,2.6-4,6.6-3.1,10.4
			c-8.7-0.4-16.8-4.5-22.3-11.3c-2.9,4.9-1.4,11.3,3.3,14.4c-1.7-0.1-3.4-0.5-4.9-1.4c-0.1,5.2,3.6,9.7,8.7,10.7
			c-1.6,0.4-3.3,0.5-4.9,0.2c1.4,4.4,5.5,7.4,10.1,7.5C-233.9,449.6-239.6,451.2-245.3,450.5z"/>
	</g>
</g>
</svg>
