<svg xmlns="http://www.w3.org/2000/svg" viewBox="0 0 19.03 16.65"><defs><style>.cls-1{fill:#fff;}</style></defs><title>Fichier 2</title><g id="Calque_2" data-name="Calque 2"><g id="Calque_1-2" data-name="Calque 1"><path class="cls-1" d="M5.27,16.65H0V8.28H5.27ZM17.91,9.13l0,.21c1.4.4.65,2-.35,2.12l-.05.21c1.34.34.7,2-.35,2.12l0,.21c1.1.18.83,2.05-.83,2.05H8c-.58,0-1.11-.67-1.54-.67H6V8.94A14.29,14.29,0,0,0,7.4,8a22.8,22.8,0,0,0,3.07-5c0-.5-.05-2.66-.05-2.66S10.9-.29,12,.17a9.47,9.47,0,0,1,1,3.07s-.41,2.8-.63,3.67h5.73c1.41,0,1.14,2-.18,2.22Zm0,0"/></g></g></svg>